<svg width="166" height="30" viewBox="0 0 166 30" fill="none" xmlns="http://www.w3.org/2000/svg">
<path d="M16.8856 0.36V5.292H6.58959V10.62H14.2936V15.408H6.58959V25.632H0.433594V0.36H16.8856Z" fill="#037C54"/>
<path d="M26.2771 0.36V25.632H20.1211V0.36H26.2771Z" fill="#037C54"/>
<path d="M48.9183 0.36V5.292H42.2223V25.632H36.0663V5.292H29.3703V0.36H48.9183Z" fill="#037C54"/>
<path d="M70.0078 29.952L66.7678 25.596C65.8078 25.788 64.8718 25.884 63.9598 25.884C61.5838 25.884 59.3998 25.332 57.4078 24.228C55.4398 23.124 53.8678 21.588 52.6918 19.62C51.5398 17.628 50.9638 15.396 50.9638 12.924C50.9638 10.452 51.5398 8.232 52.6918 6.264C53.8678 4.296 55.4398 2.76 57.4078 1.656C59.3998 0.552 61.5838 0 63.9598 0C66.3358 0 68.5078 0.552 70.4758 1.656C72.4678 2.76 74.0278 4.296 75.1558 6.264C76.3078 8.232 76.8838 10.452 76.8838 12.924C76.8838 15.084 76.4398 17.064 75.5518 18.864C74.6878 20.64 73.4758 22.116 71.9158 23.292L77.4598 29.952H70.0078ZM57.2638 12.924C57.2638 15.156 57.8638 16.944 59.0638 18.288C60.2878 19.608 61.9198 20.268 63.9598 20.268C65.9758 20.268 67.5838 19.596 68.7838 18.252C70.0078 16.908 70.6198 15.132 70.6198 12.924C70.6198 10.692 70.0078 8.916 68.7838 7.596C67.5838 6.252 65.9758 5.58 63.9598 5.58C61.9198 5.58 60.2878 6.24 59.0638 7.56C57.8638 8.88 57.2638 10.668 57.2638 12.924Z" fill="#037C54"/>
<path d="M86.4269 0.36V15.48C86.4269 16.992 86.7989 18.156 87.5429 18.972C88.2869 19.788 89.3789 20.196 90.8189 20.196C92.2589 20.196 93.3629 19.788 94.1309 18.972C94.8989 18.156 95.2829 16.992 95.2829 15.48V0.36H101.439V15.444C101.439 17.7 100.959 19.608 99.9989 21.168C99.0389 22.728 97.7429 23.904 96.1109 24.696C94.5029 25.488 92.7029 25.884 90.7109 25.884C88.7189 25.884 86.9309 25.5 85.3469 24.732C83.7869 23.94 82.5509 22.764 81.6389 21.204C80.7269 19.62 80.2709 17.7 80.2709 15.444V0.36H86.4269Z" fill="#037C54"/>
<path d="M111.918 5.292V10.404H120.162V15.156H111.918V20.7H121.242V25.632H105.762V0.36H121.242V5.292H111.918Z" fill="#037C54"/>
<path d="M134.382 25.884C132.534 25.884 130.878 25.584 129.414 24.984C127.95 24.384 126.774 23.496 125.886 22.32C125.022 21.144 124.566 19.728 124.518 18.072H131.07C131.166 19.008 131.49 19.728 132.042 20.232C132.594 20.712 133.314 20.952 134.202 20.952C135.114 20.952 135.834 20.748 136.362 20.34C136.89 19.908 137.154 19.32 137.154 18.576C137.154 17.952 136.938 17.436 136.506 17.028C136.098 16.62 135.582 16.284 134.958 16.02C134.358 15.756 133.494 15.456 132.366 15.12C130.734 14.616 129.402 14.112 128.37 13.608C127.338 13.104 126.45 12.36 125.706 11.376C124.962 10.392 124.59 9.108 124.59 7.524C124.59 5.172 125.442 3.336 127.146 2.016C128.85 0.672 131.07 0 133.806 0C136.59 0 138.834 0.672 140.538 2.016C142.242 3.336 143.154 5.184 143.274 7.56H136.614C136.566 6.744 136.266 6.108 135.714 5.652C135.162 5.172 134.454 4.932 133.59 4.932C132.846 4.932 132.246 5.136 131.79 5.544C131.334 5.928 131.106 6.492 131.106 7.236C131.106 8.052 131.49 8.688 132.258 9.144C133.026 9.6 134.226 10.092 135.858 10.62C137.49 11.172 138.81 11.7 139.818 12.204C140.85 12.708 141.738 13.44 142.482 14.4C143.226 15.36 143.598 16.596 143.598 18.108C143.598 19.548 143.226 20.856 142.482 22.032C141.762 23.208 140.706 24.144 139.314 24.84C137.922 25.536 136.278 25.884 134.382 25.884Z" fill="#037C54"/>
<path d="M165.567 0.36V5.292H158.871V25.632H152.715V5.292H146.019V0.36H165.567Z" fill="#037C54"/>
</svg>
