<svg width="58" height="58" viewBox="0 0 58 58" fill="none" xmlns="http://www.w3.org/2000/svg">
<path d="M29 57.8129C44.9645 57.8129 57.9062 44.8711 57.9062 28.9066C57.9062 12.9421 44.9645 0.000366211 29 0.000366211C13.0355 0.000366211 0.09375 12.9421 0.09375 28.9066C0.09375 44.8711 13.0355 57.8129 29 57.8129Z" fill="url(#paint0_linear_297_211)"/>
<path d="M7.51562 28.9063C7.51562 14.2 18.5004 2.06797 32.7109 0.245312C31.4953 0.0894525 30.2586 0 29 0C13.0355 0 0.09375 12.9418 0.09375 28.9063C0.09375 44.8707 13.0355 57.8125 29 57.8125C30.2586 57.8125 31.4953 57.7231 32.7109 57.5672C18.5004 55.7449 7.51562 43.6125 7.51562 28.9063Z" fill="#FBB500"/>
<path d="M39.061 46.9527C38.5833 46.9531 38.0946 46.8234 37.6091 46.5679L29.7392 42.4308C29.6204 42.3683 29.3556 42.2953 29.0005 42.2953C28.645 42.2953 28.3802 42.3683 28.2606 42.4308L20.3915 46.5679C19.9056 46.8234 19.4169 46.9527 18.9396 46.9527C18.2146 46.9527 17.5657 46.657 17.1134 46.1203C16.6114 45.5254 16.4208 44.6996 16.5759 43.7953L18.079 35.0328C18.145 34.648 17.9017 33.8992 17.6224 33.6265L11.256 27.4207C10.427 26.6125 10.1267 25.6109 10.4317 24.6726C10.7368 23.7344 11.5685 23.1012 12.7138 22.9347L21.5114 21.6566C21.8974 21.6004 22.5349 21.1375 22.7075 20.7875L26.6419 12.8148C27.1544 11.7769 28.0138 11.182 29.0005 11.182C29.9872 11.182 30.847 11.7769 31.3587 12.8148L35.2935 20.7875C35.4661 21.1375 36.1032 21.6008 36.4892 21.6566L45.2872 22.9347C46.4321 23.1012 47.2642 23.7344 47.5689 24.6726C47.8739 25.6109 47.5739 26.6125 46.7454 27.4203L40.3786 33.6265C40.0989 33.8988 39.8556 34.648 39.9216 35.0328L41.4243 43.7953C41.5794 44.6996 41.3888 45.5254 40.8872 46.1203C40.4345 46.657 39.7857 46.9527 39.061 46.9527Z" fill="#EFEFEF"/>
<path d="M23.0234 42.9578L24.652 33.4628C24.7234 33.046 24.4598 32.2339 24.157 31.939L17.2582 25.2144C16.411 24.3882 16.0809 23.3765 16.3227 22.4109L12.7129 22.9355C11.5676 23.1019 10.736 23.7351 10.4309 24.6734C10.1258 25.6117 10.4262 26.6132 11.2551 27.4214L17.6215 33.6273C17.9008 33.8996 18.1442 34.6488 18.0781 35.0335L16.575 43.7961C16.4203 44.7003 16.611 45.5261 17.1125 46.1211C17.5652 46.6578 18.2137 46.9535 18.9387 46.9535C19.4164 46.9535 19.9047 46.8242 20.3906 46.5687L23.309 45.0343C22.9949 44.4476 22.891 43.7304 23.0234 42.9578Z" fill="#DADADA"/>
<defs>
<linearGradient id="paint0_linear_297_211" x1="0.09375" y1="0.000366211" x2="46.8502" y2="29.8872" gradientUnits="userSpaceOnUse">
<stop stop-color="#FFE070"/>
<stop offset="1" stop-color="#FFD542"/>
</linearGradient>
</defs>
</svg>
